<?xml version="1.0" encoding="utf-8"?>
<!-- Generator: Adobe Illustrator 18.0.0, SVG Export Plug-In . SVG Version: 6.00 Build 0)  -->
<!DOCTYPE svg PUBLIC "-//W3C//DTD SVG 1.1//EN" "http://www.w3.org/Graphics/SVG/1.1/DTD/svg11.dtd">
<svg version="1.1" xmlns="http://www.w3.org/2000/svg" xmlns:xlink="http://www.w3.org/1999/xlink" x="0px" y="0px" width="50px"
	 height="360px" viewBox="0 0 50 360" enable-background="new 0 0 50 360" xml:space="preserve">
<g id="Layer_1">
	<g>
		<path fill="#FFFFFF" d="M48.5,23.9L26,1.5C25.1,0.5,23.9,0,22.5,0H5C2.3,0,0,2.3,0,5v17.5c0,1.4,0.5,2.6,1.5,3.6L24,48.5
			c0.9,0.9,2.1,1.5,3.5,1.5c1.4,0,2.6-0.5,3.5-1.5L48.5,31c0.9-0.9,1.5-2.2,1.5-3.5C50,26.1,49.4,24.9,48.5,23.9L48.5,23.9z
			 M8.7,12.5C6.7,12.5,5,10.8,5,8.7C5,6.7,6.7,5,8.7,5c2.1,0,3.8,1.7,3.8,3.8C12.5,10.8,10.8,12.5,8.7,12.5L8.7,12.5z M8.7,12.5"/>
	</g>
</g>
<g id="Layer_2">
	<g>
		<g>
			<path fill="#FFFFFF" d="M29.7,69c0.8-0.4,1.5-0.7,2.3-1c0.8-0.3,1.6-0.6,2.4-0.8c0.8-0.2,1.7-0.5,2.5-0.6
				c0.8-0.2,1.7-0.3,2.5-0.5c0.8-0.1,1.7-0.2,2.5-0.3c0.8-0.1,1.7-0.2,2.5-0.2c0.7,0,1.3-0.1,2-0.1c0.5,0,1-0.4,1.1-0.9
				c0.1-0.6-0.2-1.2-0.7-1.4c-0.5-0.2-1,0-1.5,0.1c-0.7,0.1-1.5,0.2-2.2,0.4c0,0,0.1,0,0,0c-0.3,0.1-0.2,0,0,0
				c-0.8,0.2-1.6,0.3-2.4,0.5c-0.8,0.2-1.7,0.4-2.5,0.7c-1.7,0.5-3.3,1.1-4.8,1.8c-1.1,0.5-2.1,1-3.1,1.6c-0.5,0.3-0.9,0.6-1.4,0.9
				c-0.3,0.2-0.7,0.5-1,0.8c0,0,0,0,0.1,0C28.6,69.6,29.2,69.3,29.7,69L29.7,69z M29.7,69"/>
			<path fill="#FFFFFF" d="M28,68.6c0.7-0.5,1.4-1,2.1-1.4c1.2-0.8,2.5-1.4,3.9-2.1c1.6-0.7,3.2-1.3,4.9-1.8c1.4-0.4,2.9-0.7,4.4-1
				c0.6-0.1,1-0.6,1-1.2c0-0.6-0.5-1.2-1.2-1.2c-0.2,0-0.4,0.1-0.6,0.1c-0.3,0.1-0.6,0.2-1,0.3c-0.8,0.3-1.6,0.5-2.3,0.8
				c-1.6,0.6-3.2,1.4-4.7,2.2c-1.3,0.7-2.5,1.5-3.6,2.3c-0.9,0.7-1.8,1.4-2.6,2.2c-0.4,0.4-0.8,0.8-1.2,1.2c-0.3,0.3-0.6,0.7-0.9,1
				c0-0.1,0.1-0.1,0.1-0.2C26.8,69.6,27.4,69.1,28,68.6L28,68.6z M28,68.6"/>
			<path fill="#FFFFFF" d="M20.4,68.8c-0.7-0.5-1.4-0.9-2.2-1.3c-0.8-0.4-1.5-0.8-2.3-1.1c-0.8-0.3-1.6-0.7-2.4-0.9
				c-0.8-0.3-1.7-0.5-2.5-0.8c-0.8-0.2-1.6-0.4-2.5-0.6c-1.5-0.4-3.1-0.6-4.7-0.9c-0.3,0-0.5-0.1-0.8,0c-0.3,0.1-0.6,0.4-0.7,0.8
				c-0.2,0.7,0.3,1.5,1.1,1.5c0.6,0,1.2,0,1.8,0.1c0.8,0,1.6,0.1,2.5,0.2c0.8,0.1,1.7,0.2,2.6,0.3c0.8,0.1,1.7,0.3,2.5,0.5
				c1.7,0.3,3.4,0.8,5,1.4c0.8,0.3,1.5,0.6,2.3,0.9c0.7,0.3,1.3,0.6,1.9,1c0,0,0.1,0,0.1,0C21.5,69.5,21,69.1,20.4,68.8L20.4,68.8z
				 M20.4,68.8"/>
			<path fill="#FFFFFF" d="M6.8,62.4c1.4,0.3,2.8,0.5,4.1,0.9c1.7,0.5,3.3,1.1,4.9,1.7c0.8,0.3,1.6,0.7,2.3,1.1
				c0.5,0.3,1,0.6,1.5,0.9c1.4,0.9,2.7,1.8,3.9,2.9c0.1,0.1,0.2,0.2,0.3,0.3c-0.4-0.6-0.9-1.1-1.4-1.6c-0.6-0.6-1.2-1.2-1.9-1.7
				c-1.1-0.9-2.2-1.7-3.4-2.5c-1.5-0.9-3-1.8-4.7-2.5c-0.8-0.4-1.6-0.7-2.4-1c-0.7-0.3-1.5-0.5-2.2-0.8C7.6,60.1,7.4,60,7.1,60
				c-0.4,0-0.8,0.2-1,0.5C5.6,61.2,6,62.2,6.8,62.4L6.8,62.4z M6.8,62.4"/>
		</g>
		<path fill="#FFFFFF" d="M48.9,67.5c-0.5,0-1,0-1.5,0c-6.3,0-12.7,1.3-16.8,2.3v34.4c4-1.7,11.1-4.3,18.5-5.5c0.6-0.1,1-0.6,1-1.2
			V68.7C50,68.1,49.5,67.6,48.9,67.5L48.9,67.5z M48.9,67.5"/>
		<path fill="#FFFFFF" d="M28.5,69.9c-1.3,0.6-2.4,0.8-3.5,0.8c-1.1,0-2.2-0.3-3.5-0.8l-0.2-0.1v0c0,6.3,0,16.3,0,23v11.4
			c0,0.2,0.9,1.1,3.7,1.1s3.7-0.9,3.7-1.1V69.8L28.5,69.9z M28.5,69.9"/>
		<path fill="#FFFFFF" d="M1.1,67.5c-0.6,0-1.1,0.5-1.1,1.2v28.8c0,0.6,0.4,1.1,1,1.2c7.4,1.1,14.5,3.8,18.5,5.5V93.5
			c0-7.6,0-16.4,0-23.7c-4.1-1-10.5-2.3-16.8-2.3C2.2,67.5,1.6,67.5,1.1,67.5L1.1,67.5z M1.1,67.5"/>
	</g>
</g>
<g id="Layer_3">
	<g>
		<path fill="#FFFFFF" d="M25,120L0,135.6h50L25,120z M39.1,138.8l1.6,3.1v18.8h6.2v-18.8l1.6-3.1H39.1z M26.6,138.8l1.6,3.1v18.8
			h6.3v-18.8l1.6-3.1H26.6z M14.1,138.8l1.6,3.1v18.8h6.2v-18.8l1.6-3.1H14.1z M1.6,138.8l1.6,3.1v18.8h6.2v-18.8l1.6-3.1H1.6z
			 M1.6,163.7L0,170h50l-1.6-6.3H1.6z M28.1,129.4c0,1.7-1.4,3.1-3.1,3.1c-1.7,0-3.1-1.4-3.1-3.1c0-1.7,1.4-3.1,3.1-3.1
			C26.7,126.2,28.1,127.6,28.1,129.4L28.1,129.4z M28.1,129.4"/>
	</g>
</g>
<g id="Layer_4">
	<g>
		<path fill="#FFFFFF" d="M4,207.3h42c0.8,0,1.5-0.4,2-1c0.5-0.6,0.6-1.4,0.4-2.2c-2.3-7.8-8.3-13.9-16-16.3c0-0.2,0-0.3,0-0.5
			c0-4.1-3.3-7.4-7.3-7.4c-4.1,0-7.3,3.3-7.3,7.4c0,0.2,0,0.3,0,0.5c-7.7,2.4-13.7,8.6-16,16.3c-0.2,0.8-0.1,1.6,0.4,2.2
			C2.5,207,3.2,207.3,4,207.3L4,207.3z M25,184.6c1.3,0,2.5,1,2.7,2.2c-0.9-0.1-1.8-0.1-2.7-0.1c-0.9,0-1.8,0-2.7,0.1
			C22.5,185.6,23.7,184.6,25,184.6L25,184.6z M25,184.6"/>
		<path fill="#FFFFFF" d="M46.5,210.3H3.5c-1.9,0-3.5,1.5-3.5,3.4c0,1.9,1.5,3.4,3.5,3.4h43.1c1.9,0,3.5-1.5,3.5-3.4
			C50,211.8,48.5,210.3,46.5,210.3L46.5,210.3z M46.5,210.3"/>
	</g>
</g>
<g id="Layer_5">
	<g>
		<path fill="#FFFFFF" d="M49.8,267.5l-6.5-8.3h2.4c0.3,0,0.6-0.2,0.8-0.5c0.1-0.3,0.1-0.6-0.1-0.9l-4.8-6.4h0.9
			c0.3,0,0.6-0.2,0.8-0.5c0.1-0.3,0.1-0.6-0.1-0.9l-6.6-9.7c-0.2-0.2-0.4-0.4-0.7-0.4c-0.3,0-0.5,0.1-0.7,0.4l-4,5.8l4.5,6.6
			c0.5,0.8,0.6,1.8,0.2,2.7c-0.1,0.2-0.3,0.4-0.5,0.6l3.6,4.9c0.6,0.8,0.7,1.8,0.2,2.7c-0.3,0.6-0.9,1.1-1.5,1.3l3.1,3.9h8.3
			c0.3,0,0.6-0.2,0.8-0.5C50.1,268.1,50,267.7,49.8,267.5L49.8,267.5z M49.8,267.5"/>
		<g>
			<path fill="#FFFFFF" d="M34.3,263.3H37c0.3,0,0.6-0.2,0.8-0.5c0.1-0.3,0.1-0.6-0.1-0.9l-5.1-6.9h1.1c0.3,0,0.6-0.2,0.8-0.5
				c0.1-0.3,0.1-0.6-0.1-0.9l-7.1-10.4c-0.2-0.2-0.4-0.4-0.7-0.4c-0.3,0-0.5,0.1-0.7,0.4l-5,7.2l4.6,6.7c0.5,0.8,0.6,1.8,0.2,2.7
				c-0.1,0.3-0.3,0.5-0.5,0.7l3.8,5.2c0.6,0.8,0.7,1.8,0.2,2.7c-0.3,0.7-1,1.2-1.7,1.3l3,3.9h10.2c0.3,0,0.6-0.2,0.8-0.5
				c0.1-0.3,0.1-0.6-0.1-0.9L34.3,263.3z M34.3,263.3"/>
			<path fill="#FFFFFF" d="M23.9,268.1h2.9c0.3,0,0.6-0.2,0.8-0.5c0.1-0.3,0.1-0.6-0.1-0.9l-5.4-7.2h1.2c0.3,0,0.6-0.2,0.8-0.5
				c0.1-0.3,0.1-0.6-0.1-0.9l-7.5-11c-0.2-0.2-0.4-0.4-0.7-0.4h0c-0.3,0-0.5,0.1-0.7,0.4l-7.5,11c-0.2,0.3-0.2,0.6-0.1,0.9
				c0.1,0.3,0.4,0.5,0.8,0.5h1.2L4,266.7c-0.2,0.3-0.2,0.6-0.1,0.9c0.1,0.3,0.4,0.5,0.8,0.5h2.9l-7.4,9.4c-0.2,0.3-0.2,0.6-0.1,0.9
				c0.1,0.3,0.4,0.5,0.8,0.5h10.9v8.8h0c0,0.9,1.8,1.7,3.9,1.7c2.2,0,3.9-0.7,3.9-1.7l0-8.8h10.9c0.3,0,0.6-0.2,0.8-0.5
				c0.1-0.3,0.1-0.6-0.1-0.9L23.9,268.1z M23.9,268.1"/>
		</g>
	</g>
</g>
<g id="Layer_6">
	<g>
		<g>
			<path fill="#FFFFFF" d="M49.7,317.5l-2.4-3.4c0,0,0,0,0,0c-2.7,1.9-6.5,1.2-8.4-1.5c-1.9-2.7-1.2-6.5,1.5-8.4c0,0,0,0,0,0
				l-2.4-3.4c-0.6-0.8-1.7-1-2.5-0.4l-9.5,6.7l2.1,3l-2.3,1.6l-2.1-3l-22.9,16c-0.8,0.6-1,1.7-0.4,2.5L12,343.8
				c0.6,0.8,1.7,1,2.5,0.4l22.9-16l-2.1-2.9l2.3-1.6l2.1,2.9l9.5-6.7C50,319.4,50.2,318.3,49.7,317.5L49.7,317.5z M27.4,313.7
				l2.3-1.6l2.7,3.9l-2.3,1.6L27.4,313.7z M34,323.2l-2.5-3.6l2.3-1.6l2.5,3.6L34,323.2z M34,323.2"/>
		</g>
	</g>
</g>
</svg>
