<?xml version="1.0" encoding="utf-8"?>
<!-- Generator: Adobe Illustrator 18.0.0, SVG Export Plug-In . SVG Version: 6.00 Build 0)  -->
<!DOCTYPE svg PUBLIC "-//W3C//DTD SVG 1.1//EN" "http://www.w3.org/Graphics/SVG/1.1/DTD/svg11.dtd">
<svg version="1.1" id="Layer_1" xmlns="http://www.w3.org/2000/svg" xmlns:xlink="http://www.w3.org/1999/xlink" x="0px" y="0px"
	 width="30px" height="280px" viewBox="0 0 30 280" enable-background="new 0 0 30 280" xml:space="preserve">
<g id="Layer_1_1_">
	<g>
		<path fill="#FFC73B" d="M21.3,10v0.2v2.7h4.3l-0.2,4h-4.1v11h-4.2v-11h-2.9v-4h2.9V9.5c0-2.7,1.7-5.1,5.7-5.1
			c1.6,0,2.8,0.2,2.8,0.2l-0.1,3.7c0,0-1.2,0-2.5,0C21.6,8.2,21.3,8.9,21.3,10 M30,28.3V1.7C30,0.8,29.2,0,28.3,0H1.7
			C0.8,0,0,0.8,0,1.7v26.6C0,29.2,0.8,30,1.7,30h26.6C29.2,30,30,29.2,30,28.3"/>
	</g>
</g>
<g id="Layer_2">
	<g>
		<path fill="#FFC73B" d="M22.7,49.4c0.8-0.1,1.6-0.3,2.4-0.6c-0.6,0.8-1.2,1.5-2.1,2.1c0,0.2,0,0.4,0,0.5c0,5.4-4.1,11.7-11.7,11.7
			c-2.3,0-4.5-0.7-6.3-1.8c0.3,0,0.7,0.1,1,0.1c1.9,0,3.7-0.7,5.1-1.8c-1.8,0-3.3-1.2-3.8-2.9c0.3,0,0.5,0.1,0.8,0.1
			c0.4,0,0.7,0,1.1-0.1c-1.9-0.4-3.3-2-3.3-4c0,0,0,0,0-0.1c0.6,0.3,1.2,0.5,1.9,0.5c-1.1-0.7-1.8-2-1.8-3.4c0-0.8,0.2-1.5,0.6-2.1
			c2,2.5,5.1,4.1,8.5,4.3C15,51.6,15,51.3,15,51c0-2.3,1.8-4.1,4.1-4.1c1.2,0,2.3,0.5,3,1.3c0.9-0.2,1.8-0.5,2.6-1
			C24.2,48.1,23.6,48.9,22.7,49.4 M30,68.3V41.7c0-0.9-0.8-1.7-1.7-1.7H1.7C0.8,40,0,40.8,0,41.7v26.6C0,69.2,0.8,70,1.7,70h26.6
			C29.2,70,30,69.2,30,68.3"/>
	</g>
</g>
<g id="Layer_3">
	<g>
		<path fill="#FFC73B" d="M9.9,94.7c0.8-0.9,1.1-2.2,1.1-2.8c0-3.1-1.8-8-5.4-8c-1.1,0-2.4,0.6-3.1,1.4c-0.7,0.9-0.9,2.1-0.9,3.2
			c0,2.9,1.5,7.3,5.3,7.3C8.1,95.7,9.2,95.4,9.9,94.7z"/>
		<path fill="#FFC73B" d="M5.9,99.1c0-0.7,0.2-1.2,0.4-1.7c-0.5,0-1,0.1-1.4,0.1c-2,0-3.6-0.8-4.8-1.7v7.7c2-1.6,5.4-1.3,7.1-1.4
			C6.6,101.2,5.9,100.4,5.9,99.1z"/>
		<path fill="#FFC73B" d="M29.9,87.9v-5.1c0-2-1.2-2.8-2.8-2.8H2.9c-1.6,0-2.8,0.8-2.8,2.8v2.4c0.1-0.1,0.2-0.2,0.4-0.3
			c2.5-2.1,5.2-2.4,7.5-2.4h9.1l-2.4,2H12c1.1,0.9,2.7,2.6,2.7,5.5c0,3.2-1.7,4.8-3.5,6.2c-0.6,0.6-1.2,1.2-1.2,2.1
			c0,1,0.7,1.5,1.1,1.9l1.6,1.2c1.9,1.6,4.4,3.5,4.4,6.5c0,0.8-0.1,1.5-0.4,2.1h10.5c1.5,0,2.8-0.8,2.8-2.4V90.2h-5.5v5.6h-2.4v-5.6
			h-5.5v-2.3h5.5v-5.5h2.4v5.5C24.5,87.9,29.9,87.9,29.9,87.9z"/>
		<path fill="#FFC73B" d="M8.5,103.3c-0.3,0-0.6,0-1,0c-0.4,0-2.7,0.1-4.6,0.7c-0.6,0.2-2.1,0.8-3,2v1.6c0,1.5,1.2,2.4,2.8,2.4H14
			c0.1-0.2,0.2-0.4,0.2-0.8C14.2,106.9,11.9,105.7,8.5,103.3z"/>
	</g>
</g>
<g id="Layer_1_2_">
	<g>
		<path fill="#41414C" d="M21.3,130v0.2v2.7h4.3l-0.2,4h-4.1v11h-4.2v-11h-2.9v-4h2.9v-3.4c0-2.7,1.7-5.1,5.7-5.1
			c1.6,0,2.8,0.2,2.8,0.2l-0.1,3.7c0,0-1.2,0-2.5,0C21.6,128.2,21.3,128.9,21.3,130 M30,148.3v-26.6c0-0.9-0.8-1.7-1.7-1.7H1.7
			c-0.9,0-1.7,0.8-1.7,1.7v26.6c0,0.9,0.8,1.7,1.7,1.7h26.6C29.2,150,30,149.2,30,148.3"/>
	</g>
</g>
<g id="Layer_2_1_">
	<g>
		<path fill="#41414C" d="M22.7,169.4c0.8-0.1,1.6-0.3,2.4-0.6c-0.6,0.8-1.2,1.5-2.1,2.1c0,0.2,0,0.4,0,0.5
			c0,5.4-4.1,11.7-11.7,11.7c-2.3,0-4.5-0.7-6.3-1.8c0.3,0,0.7,0.1,1,0.1c1.9,0,3.7-0.7,5.1-1.8c-1.8,0-3.3-1.2-3.8-2.9
			c0.3,0,0.5,0.1,0.8,0.1c0.4,0,0.7,0,1.1-0.1c-1.9-0.4-3.3-2-3.3-4c0,0,0,0,0-0.1c0.6,0.3,1.2,0.5,1.9,0.5c-1.1-0.7-1.8-2-1.8-3.4
			c0-0.8,0.2-1.5,0.6-2.1c2,2.5,5.1,4.1,8.5,4.3c-0.1-0.3-0.1-0.6-0.1-0.9c0-2.3,1.8-4.1,4.1-4.1c1.2,0,2.3,0.5,3,1.3
			c0.9-0.2,1.8-0.5,2.6-1C24.2,168.1,23.6,168.9,22.7,169.4 M30,188.3v-26.6c0-0.9-0.8-1.7-1.7-1.7H1.7c-0.9,0-1.7,0.8-1.7,1.7v26.6
			c0,0.9,0.8,1.7,1.7,1.7h26.6C29.2,190,30,189.2,30,188.3"/>
	</g>
</g>
<g id="Layer_3_1_">
	<g>
		<path fill="#41414C" d="M9.9,214.7c0.8-0.9,1.1-2.2,1.1-2.8c0-3.1-1.8-8-5.4-8c-1.1,0-2.4,0.6-3.1,1.4c-0.7,0.9-0.9,2.1-0.9,3.2
			c0,2.9,1.5,7.3,5.3,7.3C8.1,215.7,9.2,215.4,9.9,214.7z"/>
		<path fill="#41414C" d="M5.9,219.1c0-0.7,0.2-1.2,0.4-1.7c-0.5,0-1,0.1-1.4,0.1c-2,0-3.6-0.8-4.8-1.7v7.7c2-1.6,5.4-1.3,7.1-1.4
			C6.6,221.2,5.9,220.4,5.9,219.1z"/>
		<path fill="#41414C" d="M29.9,207.9v-5.1c0-2-1.2-2.8-2.8-2.8H2.9c-1.6,0-2.8,0.8-2.8,2.8v2.4c0.1-0.1,0.2-0.2,0.4-0.3
			c2.5-2.1,5.2-2.4,7.5-2.4h9.1l-2.4,2H12c1.1,0.9,2.7,2.6,2.7,5.5c0,3.2-1.7,4.8-3.5,6.2c-0.6,0.6-1.2,1.2-1.2,2.1
			c0,1,0.7,1.5,1.1,1.9l1.6,1.2c1.9,1.6,4.4,3.5,4.4,6.5c0,0.8-0.1,1.5-0.4,2.1h10.5c1.5,0,2.8-0.8,2.8-2.4v-17.3h-5.5v5.6h-2.4
			v-5.6h-5.5v-2.3h5.5v-5.5h2.4v5.5C24.5,207.9,29.9,207.9,29.9,207.9z"/>
		<path fill="#41414C" d="M8.5,223.3c-0.3,0-0.6,0-1,0c-0.4,0-2.7,0.1-4.6,0.7c-0.6,0.2-2.1,0.8-3,2v1.6c0,1.5,1.2,2.4,2.8,2.4H14
			c0.1-0.2,0.2-0.4,0.2-0.8C14.2,226.9,11.9,225.7,8.5,223.3z"/>
	</g>
</g>
<g id="Layer_5">
	<g>
		<g>
			<rect y="240" fill="#FFFFFF" width="30" height="1.2"/>
		</g>
		<g>
			<rect y="248.6" fill="#FFFFFF" width="30" height="1.2"/>
		</g>
		<g>
			<rect y="257.1" fill="#FFFFFF" width="30" height="1.2"/>
		</g>
		<g>
			<rect y="265.7" fill="#FFFFFF" width="30" height="1.2"/>
		</g>
	</g>
</g>
</svg>
